<svg width="97" height="20" viewBox="0 0 97 20" fill="none" xmlns="http://www.w3.org/2000/svg">
<path d="M0.500122 19V0.407999H14.1268V3.656H4.26979V7.632H13.3449V10.908H4.26979V15.696H14.5736V19H0.500122Z" fill="#211E31"/>
<path d="M27.8156 14.016C27.7225 14.8187 27.4899 15.5467 27.1175 16.2C26.7638 16.8533 26.3078 17.4133 25.7493 17.88C25.1908 18.3467 24.5486 18.7107 23.8226 18.972C23.1152 19.2333 22.3426 19.364 21.5049 19.364C20.5741 19.364 19.7178 19.2147 18.936 18.916C18.1727 18.5987 17.5119 18.132 16.9534 17.516C16.3949 16.8813 15.9575 16.1067 15.641 15.192C15.3431 14.2587 15.1942 13.176 15.1942 11.944C15.1942 10.712 15.3431 9.648 15.641 8.752C15.9575 7.856 16.3949 7.128 16.9534 6.568C17.5119 5.98933 18.182 5.56 18.9639 5.28C19.7644 5 20.6486 4.86 21.6166 4.86C22.5102 4.86 23.3199 4.98133 24.046 5.224C24.7906 5.46667 25.4328 5.82133 25.9727 6.288C26.5311 6.75467 26.9686 7.31467 27.2851 7.968C27.6015 8.62133 27.7877 9.34933 27.8436 10.152H24.1856C24.0925 9.44267 23.804 8.892 23.3199 8.5C22.8546 8.08933 22.2775 7.884 21.5887 7.884C21.1978 7.884 20.8348 7.94933 20.4997 8.08C20.1646 8.21067 19.8667 8.43467 19.6061 8.752C19.3641 9.05067 19.1687 9.46133 19.0197 9.984C18.8708 10.488 18.7963 11.1133 18.7963 11.86C18.7963 13.372 19.0663 14.492 19.6061 15.22C20.146 15.948 20.7696 16.312 21.477 16.312C22.1844 16.312 22.7894 16.116 23.292 15.724C23.7946 15.332 24.0832 14.7627 24.1576 14.016H27.8156Z" fill="#211E31"/>
<path d="M37.6851 19V10.46C37.6851 9.41467 37.4989 8.70533 37.1266 8.332C36.7729 7.94 36.1772 7.744 35.3395 7.744C34.8927 7.744 34.4925 7.83733 34.1388 8.024C33.7851 8.192 33.4872 8.43467 33.2452 8.752C33.0032 9.05067 32.8171 9.40533 32.6868 9.816C32.5751 10.208 32.5192 10.6373 32.5192 11.104V19H28.8892V0.183998H32.5192V7.016C32.6495 6.71733 32.845 6.43733 33.1056 6.176C33.3848 5.896 33.7013 5.66267 34.055 5.476C34.4087 5.28933 34.7996 5.14 35.2278 5.028C35.656 4.916 36.1027 4.86 36.5681 4.86C37.9829 4.86 39.1278 5.252 40.0027 6.036C40.8963 6.80133 41.343 7.87467 41.343 9.256V19H37.6851Z" fill="#211E31"/>
<path d="M50.7759 9.928H54.1546V13.848C54.1546 14.576 54.0429 15.276 53.8195 15.948C53.6148 16.6013 53.2797 17.1893 52.8143 17.712C52.3675 18.216 51.7904 18.6173 51.083 18.916C50.3943 19.2147 49.5659 19.364 48.5978 19.364C47.5926 19.364 46.7363 19.2147 46.0289 18.916C45.3215 18.6173 44.7351 18.216 44.2697 17.712C43.8229 17.208 43.4972 16.62 43.2924 15.948C43.0876 15.276 42.9852 14.5667 42.9852 13.82V1.5H46.5594V5.224H54.1546V7.8H46.5594V13.456C46.5594 14.3333 46.7177 15.0147 47.0341 15.5C47.3692 15.9667 47.9091 16.2 48.6537 16.2C49.3797 16.2 49.9103 15.9667 50.2453 15.5C50.599 15.0333 50.7759 14.3707 50.7759 13.512V9.928Z" fill="#211E31"/>
<path d="M63.9872 12.252C63.801 12.4387 63.5311 12.588 63.1774 12.7C62.8237 12.812 62.3118 12.9333 61.6416 13.064C60.5991 13.2693 59.8824 13.5307 59.4915 13.848C59.1006 14.1653 58.9051 14.6227 58.9051 15.22C58.9051 16.2467 59.4915 16.76 60.6643 16.76C61.1297 16.76 61.5578 16.6853 61.9488 16.536C62.3583 16.368 62.7027 16.1533 62.9819 15.892C63.2798 15.612 63.5125 15.2947 63.68 14.94C63.8662 14.5667 63.9593 14.1747 63.9593 13.764L63.9872 12.252ZM64.2385 19C64.1268 18.6453 64.0523 18.2347 64.0151 17.768C63.5869 18.2533 63.0192 18.6453 62.3118 18.944C61.6044 19.224 60.7853 19.364 59.8545 19.364C58.2722 19.364 57.1087 19.0187 56.3641 18.328C55.6381 17.6187 55.2751 16.704 55.2751 15.584C55.2751 14.5947 55.4333 13.8107 55.7497 13.232C56.0662 12.6347 56.5037 12.168 57.0622 11.832C57.6206 11.496 58.2815 11.2533 59.0447 11.104C59.8266 10.936 60.6736 10.7867 61.5858 10.656C62.4979 10.5253 63.1123 10.3573 63.4287 10.152C63.7452 9.928 63.9034 9.57333 63.9034 9.088C63.9034 8.64 63.6893 8.29467 63.2612 8.052C62.8516 7.79066 62.2932 7.66 61.5858 7.66C60.7481 7.66 60.1431 7.84667 59.7707 8.22C59.417 8.59333 59.1936 9.088 59.1006 9.704H55.7218C55.7404 8.99467 55.8521 8.34133 56.0569 7.744C56.2803 7.14667 56.6247 6.63333 57.0901 6.204C57.5741 5.77467 58.1977 5.448 58.961 5.224C59.7242 4.98133 60.655 4.86 61.7533 4.86C62.833 4.86 63.7452 4.98133 64.4898 5.224C65.2531 5.46667 65.8581 5.82133 66.3048 6.288C66.7702 6.736 67.1053 7.30533 67.3101 7.996C67.5149 8.668 67.6172 9.43333 67.6172 10.292V19H64.2385Z" fill="#211E31"/>
<path d="M78.0139 19V10.656C78.0139 9.592 77.8371 8.87333 77.4834 8.5C77.1297 8.12667 76.5247 7.94 75.6684 7.94C73.7882 7.94 72.8481 8.99467 72.8481 11.104V19H69.218V5.224H72.6806V7.24C73.1087 6.456 73.6765 5.868 74.3839 5.476C75.0913 5.06533 76.0035 4.86 77.1204 4.86C77.7719 4.86 78.377 4.96267 78.9354 5.168C79.4939 5.35467 79.9686 5.644 80.3595 6.036C80.7691 6.428 81.0855 6.91333 81.3089 7.492C81.5509 8.052 81.6719 8.70533 81.6719 9.452V19H78.0139Z" fill="#211E31"/>
<path d="M90.0191 16.312C92.2343 16.312 93.342 14.912 93.342 12.112C93.342 9.33067 92.2343 7.94 90.0191 7.94C87.8038 7.94 86.6962 9.33067 86.6962 12.112C86.6962 14.912 87.8038 16.312 90.0191 16.312ZM90.0191 19.364C88.9021 19.364 87.9062 19.1867 87.0313 18.832C86.1563 18.4773 85.4117 17.9827 84.7974 17.348C84.2017 16.7133 83.7456 15.948 83.4291 15.052C83.1127 14.156 82.9544 13.176 82.9544 12.112C82.9544 11.0293 83.1127 10.04 83.4291 9.144C83.7642 8.248 84.2389 7.48267 84.8532 6.848C85.4676 6.21333 86.2029 5.728 87.0592 5.392C87.9341 5.03733 88.9208 4.86 90.0191 4.86C91.0988 4.86 92.0668 5.03733 92.9231 5.392C93.7795 5.728 94.5055 6.21333 95.1012 6.848C95.7155 7.464 96.1809 8.22 96.4973 9.116C96.8324 10.012 97 11.0107 97 12.112C97 13.2133 96.8324 14.212 96.4973 15.108C96.1809 15.9853 95.7155 16.7413 95.1012 17.376C94.5055 18.0107 93.7701 18.5053 92.8952 18.86C92.0389 19.196 91.0802 19.364 90.0191 19.364Z" fill="#211E31"/>
</svg>
