<svg width="48" height="48" viewBox="0 0 48 48" fill="none" xmlns="http://www.w3.org/2000/svg">
<path d="M0 23.9995C0 10.7447 10.7452 -0.000488281 24 -0.000488281V-0.000488281C37.2548 -0.000488281 48 10.7447 48 23.9995V23.9995C48 37.2543 37.2548 47.9995 24 47.9995V47.9995C10.7452 47.9995 0 37.2543 0 23.9995V23.9995Z" fill="url(#paint0_linear_80_2497)" fill-opacity="0.2"/>
<path d="M24 47.4995C11.0213 47.4995 0.5 36.9782 0.5 23.9995H-0.5C-0.5 37.5305 10.469 48.4995 24 48.4995V47.4995ZM47.5 23.9995C47.5 36.9782 36.9787 47.4995 24 47.4995V48.4995C37.531 48.4995 48.5 37.5305 48.5 23.9995H47.5ZM24 0.499512C36.9787 0.499512 47.5 11.0208 47.5 23.9995H48.5C48.5 10.4685 37.531 -0.500488 24 -0.500488V0.499512ZM24 -0.500488C10.469 -0.500488 -0.5 10.4685 -0.5 23.9995H0.5C0.5 11.0208 11.0213 0.499512 24 0.499512V-0.500488Z" fill="url(#paint1_linear_80_2497)" fill-opacity="0.7"/>
<path d="M33.8239 22.6698C32.9482 19.6612 31.9607 18.1067 31.9448 18.0788C31.8885 18.0101 30.4931 16.3402 27.1298 15.105L26.6853 16.315C28.2854 16.9026 29.4205 17.6195 30.0448 18.0827C28.181 17.5261 25.9638 17.1853 24 17.1853C22.0362 17.1853 19.819 17.5261 17.9552 18.0827C18.5794 17.6196 19.7146 16.9026 21.3146 16.315L20.8702 15.105C17.507 16.3402 16.1115 18.0101 16.0552 18.0788C16.0393 18.1067 15.0518 19.6612 14.1761 22.6698C13.3322 25.5692 13.0116 29.6593 13 29.8233C13.0752 29.9409 14.8047 32.8937 19.5181 32.8937L20.7128 31.1637C19.3743 30.8083 18.098 30.2352 16.9297 29.4575L17.6439 28.3844C19.5288 29.639 21.7267 30.3022 24 30.3022C26.2733 30.3022 28.4712 29.639 30.3561 28.3844L31.0703 29.4575C29.9021 30.2352 28.6257 30.8083 27.2872 31.1637L28.4819 32.8937C33.1953 32.8937 34.9248 29.9409 35 29.8233C34.9884 29.6593 34.6678 25.5692 33.8239 22.6698V22.6698ZM21.0198 26.0421H19.7307V23.8936H21.0198V26.0421ZM28.2693 26.0421H26.9802V23.8936H28.2693V26.0421Z" fill="white"/>
<defs>
<linearGradient id="paint0_linear_80_2497" x1="24" y1="-0.000488281" x2="24" y2="47.9995" gradientUnits="userSpaceOnUse">
<stop stop-color="white"/>
<stop offset="1" stop-color="white" stop-opacity="0"/>
</linearGradient>
<linearGradient id="paint1_linear_80_2497" x1="44.4" y1="-0.000487022" x2="10.8" y2="47.9995" gradientUnits="userSpaceOnUse">
<stop stop-color="white"/>
<stop offset="1" stop-color="white" stop-opacity="0"/>
</linearGradient>
</defs>
</svg>
