<svg width="48" height="48" viewBox="0 0 48 48" fill="none" xmlns="http://www.w3.org/2000/svg">
<path d="M0 23.9995C0 10.7447 10.7452 -0.000488281 24 -0.000488281V-0.000488281C37.2548 -0.000488281 48 10.7447 48 23.9995V23.9995C48 37.2543 37.2548 47.9995 24 47.9995V47.9995C10.7452 47.9995 0 37.2543 0 23.9995V23.9995Z" fill="url(#paint0_linear_80_2505)" fill-opacity="0.2"/>
<path d="M24 47.4995C11.0213 47.4995 0.5 36.9782 0.5 23.9995H-0.5C-0.5 37.5305 10.469 48.4995 24 48.4995V47.4995ZM47.5 23.9995C47.5 36.9782 36.9787 47.4995 24 47.4995V48.4995C37.531 48.4995 48.5 37.5305 48.5 23.9995H47.5ZM24 0.499512C36.9787 0.499512 47.5 11.0208 47.5 23.9995H48.5C48.5 10.4685 37.531 -0.500488 24 -0.500488V0.499512ZM24 -0.500488C10.469 -0.500488 -0.5 10.4685 -0.5 23.9995H0.5C0.5 11.0208 11.0213 0.499512 24 0.499512V-0.500488Z" fill="url(#paint1_linear_80_2505)" fill-opacity="0.7"/>
<path d="M21.8478 27.9848L21.517 32.6382C21.9903 32.6382 22.1953 32.4349 22.4412 32.1907L24.6604 30.0698L29.2588 33.4374C30.1022 33.9074 30.6964 33.6599 30.9239 32.6615L33.9423 18.5179L33.9431 18.517C34.2106 17.2703 33.4923 16.7828 32.6706 17.0887L14.9285 23.8813C13.7176 24.3513 13.736 25.0264 14.7227 25.3322L19.2586 26.7431L29.7947 20.1504C30.2905 19.8221 30.7414 20.0037 30.3705 20.3321L21.8478 27.9848Z" fill="white"/>
<defs>
<linearGradient id="paint0_linear_80_2505" x1="24" y1="-0.000488281" x2="24" y2="47.9995" gradientUnits="userSpaceOnUse">
<stop stop-color="white"/>
<stop offset="1" stop-color="white" stop-opacity="0"/>
</linearGradient>
<linearGradient id="paint1_linear_80_2505" x1="44.4" y1="-0.000487022" x2="10.8" y2="47.9995" gradientUnits="userSpaceOnUse">
<stop stop-color="white"/>
<stop offset="1" stop-color="white" stop-opacity="0"/>
</linearGradient>
</defs>
</svg>
