<svg width="48" height="48" viewBox="0 0 48 48" fill="none" xmlns="http://www.w3.org/2000/svg">
<path d="M0 23.9995C0 10.7447 10.7452 -0.000488281 24 -0.000488281V-0.000488281C37.2548 -0.000488281 48 10.7447 48 23.9995V23.9995C48 37.2543 37.2548 47.9995 24 47.9995V47.9995C10.7452 47.9995 0 37.2543 0 23.9995V23.9995Z" fill="url(#paint0_linear_80_2502)" fill-opacity="0.2"/>
<path d="M24 47.4995C11.0213 47.4995 0.5 36.9782 0.5 23.9995H-0.5C-0.5 37.5305 10.469 48.4995 24 48.4995V47.4995ZM47.5 23.9995C47.5 36.9782 36.9787 47.4995 24 47.4995V48.4995C37.531 48.4995 48.5 37.5305 48.5 23.9995H47.5ZM24 0.499512C36.9787 0.499512 47.5 11.0208 47.5 23.9995H48.5C48.5 10.4685 37.531 -0.500488 24 -0.500488V0.499512ZM24 -0.500488C10.469 -0.500488 -0.5 10.4685 -0.5 23.9995H0.5C0.5 11.0208 11.0213 0.499512 24 0.499512V-0.500488Z" fill="url(#paint1_linear_80_2502)" fill-opacity="0.7"/>
<path d="M33.8098 18.2263C33.8677 18.1455 33.7821 18.0412 33.6894 18.0771C33.0307 18.3325 32.3423 18.5047 31.64 18.5896C32.4219 18.1225 33.0253 17.4114 33.3599 16.5696C33.394 16.4838 33.3003 16.4072 33.2195 16.4518C32.4928 16.8532 31.7091 17.1422 30.8949 17.3086C30.8608 17.3156 30.8257 17.304 30.8018 17.2787C30.1908 16.634 29.3866 16.2048 28.5098 16.0565C27.6147 15.905 26.6946 16.055 25.8938 16.4828C25.0931 16.9106 24.457 17.5922 24.0853 18.4205C23.7319 19.208 23.6365 20.0859 23.8108 20.9291C23.8243 20.9945 23.7731 21.0562 23.7065 21.0521C22.1224 20.9537 20.5747 20.5324 19.1587 19.8135C17.7463 19.0964 16.4955 18.0989 15.4827 16.8823C15.4377 16.8283 15.3525 16.8353 15.3198 16.8975C15.0046 17.4955 14.8396 18.1621 14.84 18.8396C14.8387 19.514 15.0042 20.1782 15.3218 20.7732C15.6393 21.3681 16.099 21.8753 16.66 22.2496C16.0651 22.2334 15.4818 22.0864 14.9513 21.8197C14.8829 21.7853 14.8009 21.8343 14.8045 21.9107C14.8458 22.7999 15.1723 23.6927 15.7373 24.3776C16.3387 25.1065 17.1733 25.6053 18.1 25.7896C17.7433 25.8982 17.3729 25.9554 17 25.9596C16.7971 25.9573 16.5945 25.9423 16.3936 25.9148C16.319 25.9046 16.2582 25.9754 16.2843 26.0459C16.5607 26.7934 17.049 27.4457 17.6911 27.9218C18.3776 28.4308 19.2056 28.7132 20.06 28.7296C18.6172 29.8649 16.8359 30.4845 15 30.4896C14.8114 30.4902 14.6228 30.4841 14.4347 30.4713C14.3287 30.4641 14.2799 30.6053 14.3713 30.6595C16.1601 31.7211 18.2046 32.2822 20.29 32.2796C21.8297 32.2956 23.3572 32.0046 24.7831 31.4237C26.2091 30.8428 27.5051 29.9835 28.5952 28.8961C29.6854 27.8087 30.548 26.515 31.1326 25.0905C31.7172 23.666 32.0121 22.1394 32 20.5996V20.1198C32 20.0882 32.015 20.0585 32.0402 20.0395C32.7184 19.5274 33.3149 18.9159 33.8098 18.2263Z" fill="white"/>
<defs>
<linearGradient id="paint0_linear_80_2502" x1="24" y1="-0.000488281" x2="24" y2="47.9995" gradientUnits="userSpaceOnUse">
<stop stop-color="white"/>
<stop offset="1" stop-color="white" stop-opacity="0"/>
</linearGradient>
<linearGradient id="paint1_linear_80_2502" x1="44.4" y1="-0.000487022" x2="10.8" y2="47.9995" gradientUnits="userSpaceOnUse">
<stop stop-color="white"/>
<stop offset="1" stop-color="white" stop-opacity="0"/>
</linearGradient>
</defs>
</svg>
